HIERARCHY
ROOT Hips
{
	OFFSET 0.000000 88.474243 0.000000
	CHANNELS 6 Xposition Yposition Zposition Zrotation Yrotation Xrotation 
	JOINT Hips_Spine
	{
		OFFSET 0.000000 0.000000 0.000000
		CHANNELS 3 Zrotation Yrotation Xrotation
		JOINT Spine
		{
			OFFSET 0.005100 8.711998 -0.691000
			CHANNELS 3 Zrotation Yrotation Xrotation
			JOINT Spine1
			{
				OFFSET -0.009200 8.660301 -1.275000
				CHANNELS 3 Zrotation Yrotation Xrotation
				JOINT Spine2
				{
					OFFSET 0.006300 9.852501 -1.857000
					CHANNELS 3 Zrotation Yrotation Xrotation
					JOINT Spine2_Neck
					{
						OFFSET 0.000000 0.000000 0.000000
						CHANNELS 3 Zrotation Yrotation Xrotation
						JOINT Neck
						{
							OFFSET 0.016300 11.420799 -0.263300
							CHANNELS 3 Zrotation Yrotation Xrotation
							End Site #name: Head
							{
								OFFSET -0.019200 9.262405 2.362500
							}
						}
					}
					JOINT Spine2_LeftShoulder
					{
						OFFSET 0.000000 0.000000 0.000000
						CHANNELS 3 Zrotation Yrotation Xrotation
						JOINT LeftShoulder
						{
							OFFSET 5.616900 6.732201 -0.345700
							CHANNELS 3 Zrotation Yrotation Xrotation
							JOINT LeftArm
							{
								OFFSET 10.664888 -0.183372 -2.440700
								CHANNELS 3 Zrotation Yrotation Xrotation
								JOINT LeftForeArm
								{
									OFFSET 27.459126 0.000000 0.000000
									CHANNELS 3 Zrotation Yrotation Xrotation
									End Site #name: LeftHand
									{
										OFFSET 21.306858 0.000000 0.000000
									}
								}
							}
						}
					}
					JOINT Spine2_RightShoulder
					{
						OFFSET 0.000000 0.000000 0.000000
						CHANNELS 3 Zrotation Yrotation Xrotation
						JOINT RightShoulder
						{
							OFFSET -5.580300 6.737503 -0.344400
							CHANNELS 3 Zrotation Yrotation Xrotation
							JOINT RightArm
							{
								OFFSET -10.679335 -0.188484 -2.383900
								CHANNELS 3 Zrotation Yrotation Xrotation
								JOINT RightForeArm
								{
									OFFSET -27.503529 0.000000 0.000000
									CHANNELS 3 Zrotation Yrotation Xrotation
									End Site #name: RightHand
									{
										OFFSET -21.306808 0.000000 0.000000
									}
								}
							}
						}
					}
				}
			}
		}
	}
	JOINT Hips_LeftUpLeg
	{
		OFFSET 0.000000 0.000000 0.000000
		CHANNELS 3 Zrotation Yrotation Xrotation
		JOINT LeftUpLeg
		{
			OFFSET 6.857700 -6.739601 0.312100
			CHANNELS 3 Zrotation Yrotation Xrotation
			JOINT LeftLeg
			{
				OFFSET -0.367590 -34.731552 -4.572400
				CHANNELS 3 Zrotation Yrotation Xrotation
				End Site #name: LeftFoot
				{
					OFFSET 0.367590 -34.656704 -6.067400
				}
			}
		}
	}
	JOINT Hips_RightUpLeg
	{
		OFFSET 0.000000 0.000000 0.000000
		CHANNELS 3 Zrotation Yrotation Xrotation
		JOINT RightUpLeg
		{
			OFFSET -6.876100 -6.733299 0.301000
			CHANNELS 3 Zrotation Yrotation Xrotation
			JOINT RightLeg
			{
				OFFSET 0.347353 -34.795158 -4.515900
				CHANNELS 3 Zrotation Yrotation Xrotation
				End Site #name: RightFoot
				{
					OFFSET -0.347353 -34.589367 -6.070300
				}
			}
		}
	}
}
MOTION
Frames: 9
Frame Time: 0.041667
-0.873334 0.397984 -1.127231 -0.328905 18.226869 -6.877471 -0.000000 0.000000 0.000000 0.374887 -0.819762 -5.186691 2.958354 -1.709549 -3.606993 0.000000 0.000000 0.000000 3.107095 -1.152846 -3.972474 4.947649 -4.477253 -2.553468 2.384211 -1.599292 -3.976933 -21.284276 1.473826 8.740415 -50.864690 11.896100 12.241509 -0.872206 -23.857443 7.545733 2.156761 -1.434256 -1.720307 5.406711 6.831852 1.945461 63.027793 -1.859604 -8.297263 0.601470 43.364116 -0.656424 0.000000 0.000000 -0.000000 -7.420100 22.755403 -4.820488 -0.203499 3.675082 21.665879 0.000000 0.000000 0.000000 -6.274360 2.536956 -17.388638 4.665707 -6.043336 12.843527 
-1.196179 0.385803 -1.153918 -0.621761 18.619663 -7.068706 -0.000000 0.000000 0.000000 1.137008 -0.795601 -5.421129 3.150649 -1.748986 -3.617771 0.000000 0.000000 0.000000 3.262638 -1.129908 -3.981030 4.894634 -4.570368 -2.196613 2.575095 -1.586362 -3.940746 -20.697669 1.425078 8.896171 -51.571172 12.708811 11.338428 -0.928940 -24.602815 7.531918 2.334268 -1.416028 -1.744333 5.267711 6.949806 1.985620 63.063440 -2.168807 -8.285163 0.613829 43.800727 -0.640443 0.000000 -0.000000 -0.000000 -6.745342 23.287006 -4.398090 -0.569200 3.329278 21.601244 0.000000 -0.000000 0.000000 -5.632370 2.814076 -17.987127 4.907796 -6.318224 13.265634 
-1.476030 0.369779 -1.162194 -0.789453 18.395536 -7.235862 -0.000000 -0.000000 0.000000 1.817660 -0.755894 -5.582819 3.330763 -1.782489 -3.603072 0.000000 0.000000 0.000000 3.405836 -1.107399 -3.966392 4.832874 -4.644519 -1.804524 2.753144 -1.574734 -3.881985 -20.202725 1.369639 8.996883 -52.231242 13.477388 10.383036 -0.998255 -25.422621 7.505980 2.500558 -1.399688 -1.754126 5.181079 7.081882 2.019674 63.061706 -2.443058 -8.217314 0.625785 44.333930 -0.624446 0.000000 -0.000000 -0.000000 -6.168255 23.817765 -3.409142 -1.008903 2.813868 20.983459 0.000000 -0.000000 0.000000 -5.107396 3.176451 -18.644344 5.188517 -6.497861 13.780639 
-1.705742 0.349345 -1.160160 -0.779557 17.551090 -7.290028 -0.000000 -0.000000 0.000000 2.262750 -0.736772 -5.742132 3.492886 -1.811172 -3.556385 0.000000 0.000000 0.000000 3.533099 -1.086933 -3.930603 4.764548 -4.709216 -1.373973 2.912153 -1.563514 -3.804851 -19.758915 1.289905 9.041426 -52.849330 14.190432 9.433357 -1.059663 -26.173567 7.491828 2.649901 -1.383427 -1.747638 5.142724 7.219716 2.051468 63.027343 -2.688530 -8.107476 0.638688 44.988156 -0.606408 0.000000 -0.000000 -0.000000 -5.714878 24.284780 -2.258295 -1.422539 2.519490 20.271715 0.000000 -0.000000 0.000000 -4.681833 3.640661 -19.375434 5.469874 -6.537366 14.555197 
-1.877848 0.324928 -1.156770 -0.633092 16.046373 -7.282477 -0.000000 -0.000000 0.000000 2.599933 -0.738171 -5.866442 3.631968 -1.840658 -3.482882 0.000000 0.000000 0.000000 3.641623 -1.070405 -3.877694 4.647527 -4.813977 -0.887029 3.051815 -1.556977 -3.714687 -19.354023 1.184864 9.052252 -53.440851 14.799235 8.511798 -1.128197 -26.857669 7.488434 2.781656 -1.371085 -1.725994 5.129034 7.339994 2.078164 62.956252 -2.894628 -7.958058 0.652484 45.740460 -0.587063 0.000000 -0.000000 -0.000000 -5.350033 24.577346 -1.093713 -1.878846 2.181167 19.633387 0.000000 -0.000000 0.000000 -4.329306 4.143892 -20.169105 5.687160 -6.528495 15.665765 
-1.988285 0.294835 -1.157299 -0.371669 13.653225 -7.203674 -0.000000 -0.000000 0.000000 2.807946 -0.801520 -5.928989 3.742097 -1.874946 -3.388201 0.000000 0.000000 0.000000 3.732752 -1.061112 -3.810434 4.514668 -4.874239 -0.351782 3.172456 -1.558287 -3.619526 -19.006963 1.075110 9.029073 -53.983670 15.250251 7.758557 -1.192967 -27.529902 7.473828 2.890784 -1.366663 -1.697811 5.174451 7.450399 2.103895 62.862812 -3.089003 -7.793109 0.667747 46.528264 -0.566111 0.000000 -0.000000 -0.000000 -4.984460 24.687140 -0.089354 -2.548419 1.716771 19.522751 0.000000 -0.000000 0.000000 -4.051160 4.587815 -21.072867 5.846422 -6.433924 17.158088 
-2.038367 0.258787 -1.168694 0.036893 9.714087 -7.022385 -0.000000 -0.000000 0.000000 2.930886 -0.934937 -5.926594 3.833465 -1.913222 -3.282188 0.000000 0.000000 0.000000 3.809396 -1.061516 -3.728165 4.387858 -4.880262 0.173068 3.279602 -1.569724 -3.524094 -18.698132 0.958463 8.995658 -54.461920 15.519323 7.207430 -1.261768 -28.101695 7.462756 2.984466 -1.377429 -1.665600 5.279702 7.545691 2.124107 62.743428 -3.245781 -7.581510 0.685602 47.326973 -0.545952 0.000000 -0.000000 -0.000000 -4.713024 24.518984 0.747823 -3.167261 1.167631 19.726070 0.000000 -0.000000 0.000000 -3.854186 4.939784 -22.118449 5.950428 -6.336606 18.915913 
-2.032314 0.223985 -1.195487 0.565803 4.367621 -6.759928 -0.000000 -0.000000 0.000000 2.997557 -1.111839 -5.894231 3.912850 -1.956121 -3.164257 0.000000 0.000000 0.000000 3.874757 -1.072247 -3.643280 4.351952 -4.719704 0.482260 3.376407 -1.590757 -3.427090 -18.433174 0.849987 8.938661 -54.829426 15.600177 6.870570 -1.329459 -28.544633 7.442396 3.066299 -1.403103 -1.628238 5.411149 7.619712 2.135312 62.609879 -3.361043 -7.363344 0.708076 48.101481 -0.521398 0.000000 -0.000000 -0.000000 -4.540669 24.088376 1.339017 -3.600443 0.741048 20.432130 0.000000 -0.000000 0.000000 -3.743430 5.264407 -23.324574 6.003709 -6.328113 20.752342 
-1.964381 0.195484 -1.220559 1.115069 -1.440224 -6.553508 -0.000000 -0.000000 0.000000 3.046261 -1.289204 -5.828293 3.983824 -2.002971 -3.045914 0.000000 0.000000 0.000000 3.926877 -1.086043 -3.549065 4.347469 -4.524308 0.680941 3.461461 -1.615202 -3.329252 -18.234766 0.782245 8.866533 -55.097281 15.489650 6.734025 -1.391596 -28.858418 7.414879 3.135371 -1.435145 -1.585271 5.531085 7.663659 2.137911 62.484080 -3.423739 -7.133282 0.729334 48.883514 -0.500495 0.000000 -0.000000 -0.000000 -4.501922 23.382859 1.852004 -3.989779 0.361011 21.154630 0.000000 -0.000000 0.000000 -3.694778 5.608747 -24.526946 6.061213 -6.315516 22.550003 
